#!OML:ASF I:\Actors\actors\Patient Classification 1\Patient 1\Session 1\Subject1.ASF
:FULLY-SPECIFIED
:DEGREES
1912
root 1.09057 17.6448 8.76582 16.1728 38.4336 -13.5369
lowerback 12.8257 7.7895 1.10367
upperback -4.43699 10.2446 -3.96905
thorax -11.0405 4.65348 -7.14671
lowerneck -10.3271 -14.7896 -13.9754
upperneck 2.80372 -21.1693 31.0891
head 7.97888 -9.19158 9.82382
rclavicle -1.79701e-013 4.77083e-015
rhumerus 40.5194 11.0844 -28.4668
rradius 40.5349
rwrist 43.5253
rhand -4.7615 -50.3536
rfingers 7.12502
rthumb 21.0225 1000.77
lclavicle -1.79701e-013 4.77083e-015
lhumerus -32.9585 -72.7934 87.0158
lradius 108.819
lwrist 19.4403
lhand -28.2708 -33.5396
lfingers 7.12502
lthumb -1.64744 -3.56623
rfemur -7.42581 22.8919 27.9807
rtibia -1.93431
rfoot -49.6195 -49.7895
rtoes 38.0133
lfemur -30.0061 -40.6797 13.1159
ltibia -1.49448
lfoot 1.84164 23.2827
ltoes -23.3796
1913
root 1.08509 17.6449 8.75561 16.2063 38.2254 -13.4923
lowerback 12.8408 7.7509 1.10821
upperback -4.42132 10.1964 -3.93586
thorax -11.0425 4.63107 -7.10485
lowerneck -10.3739 -14.8711 -13.934
upperneck 2.81653 -21.2895 31.0395
head 8.00631 -9.24557 9.76746
rclavicle -1.74931e-013 3.89618e-014
rhumerus 40.4233 10.8646 -28.6939
rradius 40.1689
rwrist 44.2665
rhand -3.87748 -51.8841
rfingers 7.12502
rthumb 21.8716 999.332
lclavicle -1.74931e-013 3.89618e-014
lhumerus -33.012 -72.7937 87.0382
lradius 108.805
lwrist 19.456
lhand -28.2665 -33.6553
lfingers 7.12502
lthumb -1.64328 -3.68187
rfemur -7.45358 23.1043 27.8892
rtibia -1.94449
rfoot -49.6061 -49.833
rtoes 38.02
lfemur -29.9386 -40.664 13.0537
ltibia -1.50971
lfoot 1.80811 23.451
ltoes -23.1708
1914
root 1.07993 17.6452 8.74619 16.1876 38.0215 -13.5104
lowerback 12.8733 7.6914 1.14455
upperback -4.41699 10.1271 -3.89078
thorax -11.0664 4.5953 -7.06756
lowerneck -10.2102 -14.89 -13.9615
upperneck 2.6396 -21.3077 31.211
head 7.9579 -9.27564 9.83631
rclavicle 9.81996e-014 -7.15625e-015
rhumerus 40.3885 10.5759 -29.0711
rradius 39.8462
rwrist 45.1301
rhand -2.99584 -53.0092
rfingers 7.12502
rthumb 22.718 998.308
lclavicle 9.81996e-014 -7.15625e-015
lhumerus -33.2442 -72.7676 87.169
lradius 108.833
lwrist 19.4452
lhand -28.3134 -33.7408
lfingers 7.12502
lthumb -1.6886 -3.76771
rfemur -7.44211 23.3808 27.8577
rtibia -1.99294
rfoot -49.7087 -49.8952
rtoes 38.0872
lfemur -29.8451 -40.6425 13.0387
ltibia -1.53987
lfoot 1.76472 23.6233
ltoes -22.8056
1915
root 1.07442 17.6462 8.73522 16.2301 37.8702 -13.5115
lowerback 12.8897 7.63243 1.14735
upperback -4.44055 10.0544 -3.83493
thorax -11.1206 4.55894 -7.00113
lowerneck -10.0438 -14.9 -13.9876
upperneck 2.50098 -21.3159 31.3385
head 7.91092 -9.30052 9.89234
rclavicle -8.5875e-014 3.10104e-014
rhumerus 40.3519 10.4028 -29.277
rradius 39.6718
rwrist 45.8061
rhand -1.89389 -54.0718
rfingers 7.12502
rthumb 23.7752 997.379
lclavicle -8.5875e-014 3.10104e-014
lhumerus -33.4858 -72.7894 87.321
lradius 108.858
lwrist 19.47
lhand -28.3684 -33.7491
lfingers 7.12502
lthumb -1.74172 -3.77645
rfemur -7.52741 23.51 27.7768
rtibia -2.01836
rfoot -49.638 -49.9204
rtoes 38.1346
lfemur -29.9075 -40.5743 13.0823
ltibia -1.50015
lfoot 1.75792 23.7088
ltoes -22.564
1916
root 1.06864 17.6467 8.72345 16.3382 37.7583 -13.4621
lowerback 12.8796 7.59844 1.09553
upperback -4.47107 10.0059 -3.78031
thorax -11.1737 4.53822 -6.90794
lowerneck -10.0707 -14.9504 -13.8596
upperneck 2.56074 -21.3974 31.1909
head 7.91263 -9.3369 9.79712
rclavicle -8.8658e-014 -2.70347e-014
rhumerus 40.2699 10.3979 -29.2057
rradius 39.6267
rwrist 45.9956
rhand -0.463674 -55.3581
rfingers 7.12502
rthumb 25.1462 996.278
lclavicle -8.8658e-014 -2.70347e-014
lhumerus -33.5885 -72.8695 87.3936
lradius 108.863
lwrist 19.5017
lhand -28.3329 -33.8439
lfingers 7.12502
lthumb -1.70744 -3.87103
rfemur -7.68161 23.59 27.6313
rtibia -2.00179
rfoot -49.6025 -49.8855
rtoes 38.2422
lfemur -30.0957 -40.5558 13.1675
ltibia -1.40744
lfoot 1.80698 23.7888
ltoes -22.5657
1917
root 1.06559 17.6461 8.71554 16.3572 37.5799 -13.433
lowerback 12.875 7.59022 1.04612
upperback -4.47815 9.99153 -3.72805
thorax -11.1987 4.53526 -6.8229
lowerneck -10.1464 -15.0043 -13.6621
upperneck 2.67951 -21.4951 30.9868
head 7.92722 -9.37313 9.66504
rclavicle -5.96354e-015 -2.38542e-014
rhumerus 40.1944 10.4533 -29.08
rradius 39.5767
rwrist 45.793
rhand 1.19695 -56.6875
rfingers 7.12502
rthumb 26.7363 995.182
lclavicle -5.96354e-015 -2.38542e-014
lhumerus -33.7261 -72.9387 87.4996
lradius 108.867
lwrist 19.51
lhand -28.3135 -33.8472
lfingers 7.12502
lthumb -1.68873 -3.87412
rfemur -7.71649 23.6247 27.5596
rtibia -1.98259
rfoot -49.4306 -49.7954
rtoes 38.2287
lfemur -30.0822 -40.7189 13.2085
ltibia -1.40768
lfoot 1.89395 24.0546
ltoes -22.6291
1918
root 1.06423 17.6457 8.70947 16.3154 37.3511 -13.4451
lowerback 12.8616 7.574 1.04137
upperback -4.46131 9.97368 -3.6784
thorax -11.1836 4.52986 -6.75888
lowerneck -10.1083 -15.0521 -13.8213
upperneck 2.75047 -21.5915 31.1175
head 8.00745 -9.41512 9.72105
rclavicle 6.32135e-014 -7.23576e-014
rhumerus 40.1833 10.4211 -29.107
rradius 39.4432
rwrist 45.6166
rhand 2.51147 -57.8042
rfingers 7.12502
rthumb 27.9936 994.263
lclavicle 6.32135e-014 -7.23576e-014
lhumerus -33.7898 -72.9199 87.5305
lradius 108.839
lwrist 19.5288
lhand -28.4262 -33.6552
lfingers 7.12502
lthumb -1.79757 -3.68301
rfemur -7.68242 23.706 27.551
rtibia -1.98366
rfoot -49.1972 -49.7521
rtoes 38.1415
lfemur -29.9297 -40.888 13.2077
ltibia -1.47468
lfoot 1.93941 24.4074
ltoes -22.5344
